<svg width="30" height="30" viewBox="0 0 30 30" fill="none" xmlns="http://www.w3.org/2000/svg">
<path d="M4.21356 10.1118L6.61108 7.71432C6.77986 7.54554 7.05917 7.54554 7.22792 7.71432C7.3967 7.88889 7.3967 8.16238 7.22792 8.33116L4.83039 10.7287C5.42979 11.328 6.12807 12.0264 6.89039 12.7887L8.26959 11.4095C8.44416 11.235 8.71764 11.235 8.89221 11.4095C9.06099 11.5783 9.06099 11.8518 8.89221 12.0264L7.50727 13.4055C8.07754 13.9758 8.6769 14.5752 9.29957 15.1979L15.2003 9.30296C11.6214 5.72415 8.67112 2.77379 8.55472 2.6574C7.83314 1.93582 6.66347 1.93582 5.94189 2.6574L2.654 5.94525C1.93825 6.66686 1.93825 7.83071 2.654 8.55229C2.75292 8.65121 3.32323 9.22148 4.21356 10.1118Z" fill="#8B5A4A"/>
<path d="M21.7015 15.803L15.8008 21.6979C16.4234 22.3205 17.0228 22.9199 17.5931 23.4902L18.9781 22.1111C19.1468 21.9423 19.4203 21.9423 19.5949 22.1111C19.7637 22.2798 19.7637 22.5591 19.5949 22.7279L18.2099 24.107C18.9781 24.8752 19.6706 25.5677 20.27 26.167L22.6675 23.7695C22.8362 23.6008 23.1155 23.6008 23.2843 23.7695C23.4531 23.9441 23.4531 24.2176 23.2843 24.3864L20.8868 26.7839C21.812 27.7092 22.394 28.2911 22.4463 28.3435C23.1679 29.0651 24.3376 29.0651 25.0592 28.3435L28.3471 25.0556C29.0628 24.334 29.0628 23.1643 28.3471 22.4428C28.1143 22.21 25.2105 19.312 21.7015 15.803Z" fill="#8B5A4A"/>
<path d="M5.52375 20.4604L4.5625 22.927L8.07575 26.4402L10.5395 25.4817L9.06453 21.9353L5.52375 20.4604Z" fill="#8B5A4A"/>
<path d="M28.1631 8.10156C29.124 7.14059 29.124 5.5826 28.1631 4.62166L26.3776 2.83618C25.4167 1.87524 23.8587 1.87524 22.8977 2.83618L21.6914 4.04251L26.9568 9.30788L28.1631 8.10156Z" fill="#8B5A4A"/>
<path d="M24.0177 7.60107L9.91406 21.7047L11.2794 24.9875L26.3418 9.92515L24.0177 7.60107Z" fill="#8B5A4A"/>
<path d="M9.29712 21.0867L23.4 6.98381L21.0758 4.65967L6.01562 19.7199L9.29712 21.0867Z" fill="#8B5A4A"/>
<path d="M3.05094 26.8004C2.77085 27.5191 3.47904 28.2277 4.19792 27.9481L7.18511 26.7859L4.21436 23.8152L3.05094 26.8004Z" fill="#8B5A4A"/>
</svg>
