<svg width="30" height="30" viewBox="0 0 30 30" fill="none" xmlns="http://www.w3.org/2000/svg">
<path d="M26.9655 7.78951C26.9655 6.80002 26.1795 6 25.2111 6H4.85974C3.89129 6 3.10531 6.80002 3.10531 7.78951V21.4389H26.9655V7.78951ZM11.8353 16.3301C12.1371 16.5757 12.1862 17.0178 11.9406 17.3196C11.8002 17.488 11.5967 17.5792 11.3932 17.5792C11.2388 17.5792 11.0844 17.5231 10.9511 17.4178L9.09843 15.909C8.85982 15.7125 8.71947 15.4248 8.71947 15.123C8.71947 14.8212 8.85982 14.5335 9.09843 14.337L10.9511 12.8212C11.2529 12.5756 11.695 12.6247 11.9406 12.9265C12.1862 13.2212 12.1371 13.6633 11.8423 13.9089L10.3546 15.123L11.8353 16.3301ZM16.2846 13.5931L15.1126 17.102C15.0143 17.3897 14.7407 17.5792 14.4529 17.5792C14.3757 17.5792 14.2985 17.5652 14.2284 17.5441C13.8564 17.4178 13.6599 17.0248 13.7862 16.6529L14.9582 13.144C15.0775 12.7791 15.4775 12.5826 15.8424 12.7019C16.2144 12.8282 16.4109 13.2212 16.2846 13.5931ZM20.9724 15.909L19.1197 17.4178C18.9864 17.5231 18.832 17.5792 18.6776 17.5792C18.4741 17.5792 18.2706 17.488 18.1302 17.3196C17.8846 17.0178 17.9337 16.5757 18.2285 16.3301L19.7162 15.123L18.2285 13.9089C17.9337 13.6633 17.8846 13.2212 18.1302 12.9265C18.3758 12.6247 18.8179 12.5756 19.1197 12.8212L20.9724 14.337C21.211 14.5335 21.3513 14.8212 21.3513 15.123C21.3513 15.4248 21.211 15.7125 20.9724 15.909ZM29.0708 22.9407C29.0708 23.6846 28.8041 24.3653 28.369 24.8566C27.9339 25.3478 27.3304 25.6496 26.6637 25.6496H3.40707C2.08073 25.6496 1 24.4355 1 22.9407C1 22.9056 1 22.8776 1.00702 22.8425H11.6318C11.5687 22.9477 11.5266 23.06 11.5266 23.1934C11.5266 23.5793 11.8423 23.8951 12.2283 23.8951H17.8425C18.2285 23.8951 18.5443 23.5793 18.5443 23.1934C18.5443 23.06 18.5021 22.9477 18.439 22.8425H29.0638C29.0708 22.8776 29.0708 22.9056 29.0708 22.9407Z" fill="#8B5A4A"/>
</svg>
