<svg width="30" height="30" viewBox="0 0 30 30" fill="none" xmlns="http://www.w3.org/2000/svg">
<g clip-path="url(#clip0_1236_97)">
<path fill-rule="evenodd" clip-rule="evenodd" d="M6.5625 14.8125V7.25H4.5V14.8125C4.5 15.382 4.96172 15.8438 5.53125 15.8438C6.10078 15.8438 6.5625 15.382 6.5625 14.8125Z" fill="#8B5A4A"/>
<path d="M10 12.75V8.625H21V12.75C21 15.7875 18.5376 18.25 15.5 18.25C12.4625 18.25 10 15.7875 10 12.75Z" fill="#8B5A4A"/>
<path d="M26.4628 6.62186L17.1767 2.49468C16.1101 2.02065 14.8926 2.02065 13.826 2.49468L4.53992 6.62186C3.99556 6.8638 3.99556 7.6364 4.53992 7.87834L13.826 12.0055C14.8926 12.4795 16.1101 12.4795 17.1767 12.0055L26.4628 7.87834C27.0072 7.6364 27.0072 6.8638 26.4628 6.62186Z" fill="#8B5A4A"/>
<path d="M12.3381 20.1746L14.5224 22.3833C15.0605 22.9275 15.9395 22.9275 16.4776 22.3833L18.6619 20.1746C18.9993 19.8335 19.4919 19.688 19.9522 19.8234C23.8093 20.9577 26.5 23.5204 26.5 26.5003C26.5 28.019 25.2688 29.2503 23.75 29.2503H7.25C5.73118 29.2503 4.5 28.019 4.5 26.5003C4.5 23.5204 7.19074 20.9577 11.0478 19.8234C11.5081 19.688 12.0008 19.8335 12.3381 20.1746Z" fill="#8B5A4A"/>
</g>
<defs>
<clipPath id="clip0_1236_97">
<rect width="30" height="30" fill="white"/>
</clipPath>
</defs>
</svg>
