<svg width="30" height="30" viewBox="0 0 30 30" fill="none" xmlns="http://www.w3.org/2000/svg">
<g clip-path="url(#clip0_1236_81)">
<path d="M25.443 23.7891C26.0308 23.7891 26.5074 23.3165 26.5074 22.7247V1.81438C26.5074 1.22659 26.0308 0.75 25.443 0.75H7.28895C5.19593 0.757943 3.50007 2.44983 3.49609 4.54285V25.4571C3.49609 27.5502 5.19593 29.25 7.28894 29.25H25.443C26.0308 29.25 26.5074 28.7694 26.5074 28.1856C26.5074 27.5978 26.0308 27.1133 25.443 27.1133H25.2762V23.7891H25.443ZM20.272 7.86375H9.73146C9.14367 7.86375 8.66708 7.39114 8.66708 6.79937C8.66708 6.21952 9.14367 5.73499 9.73146 5.73499H20.272C20.8598 5.73499 21.3364 6.21555 21.3364 6.79937C21.3364 7.39114 20.8598 7.86375 20.272 7.86375ZM23.1474 27.1173H7.28895C6.37151 27.1173 5.62486 26.3785 5.62486 25.4571C5.62486 24.5357 6.37151 23.7891 7.28895 23.7891H23.1474V27.1173Z" fill="#8B5A4A"/>
</g>
<defs>
<clipPath id="clip0_1236_81">
<rect width="30" height="30" fill="white"/>
</clipPath>
</defs>
</svg>
